<?xml version="1.0" encoding="utf-8"?>
<!-- Generator: Adobe Illustrator 16.0.0, SVG Export Plug-In . SVG Version: 6.00 Build 0)  -->
<!DOCTYPE svg PUBLIC "-//W3C//DTD SVG 1.1//EN" "http://www.w3.org/Graphics/SVG/1.1/DTD/svg11.dtd">
<svg version="1.1" id="Layer_1" xmlns="http://www.w3.org/2000/svg" xmlns:xlink="http://www.w3.org/1999/xlink" x="0px" y="0px"
	 width="538.56px" height="367.224px" viewBox="36.72 138.948 538.56 367.224"
	 enable-background="new 36.72 138.948 538.56 367.224" xml:space="preserve">
<g>
	<g>
		<path fill="#FFB573" d="M246.03,200.19c15.447-15.159,36.616-24.517,59.97-24.517v-36.72c-67.602,0-122.4,54.811-122.4,122.412
			c0,33.807,27.405,61.206,61.2,61.206c33.801,0,61.2-27.405,61.2-61.206C306,227.976,279.256,200.846,246.03,200.19z M36.72,261.36
			c0,33.807,27.399,61.206,61.2,61.206s61.2-27.399,61.2-61.206c0-33.391-26.745-60.514-59.97-61.175
			c15.453-15.159,36.61-24.517,59.97-24.517v-36.72C91.524,138.948,36.72,193.758,36.72,261.36z M367.2,322.548
			c-33.795,0-61.2,27.405-61.2,61.206c0,33.391,26.744,60.521,59.97,61.176c-15.446,15.159-36.616,24.517-59.97,24.517v36.726
			c67.602,0,122.4-54.811,122.4-122.418C428.4,349.953,400.995,322.548,367.2,322.548z M514.08,322.548
			c-33.795,0-61.2,27.405-61.2,61.206c0,33.391,26.744,60.521,59.97,61.176c-15.446,15.159-36.609,24.517-59.97,24.517v36.726
			c67.602,0,122.4-54.811,122.4-122.418C575.28,349.953,547.881,322.548,514.08,322.548z"/>
	</g>
</g>
</svg>
