<?xml version="1.0" encoding="utf-8"?>
<!-- Generator: Adobe Illustrator 18.1.0, SVG Export Plug-In . SVG Version: 6.00 Build 0)  -->
<svg version="1.1" id="Layer_1" xmlns="http://www.w3.org/2000/svg" xmlns:xlink="http://www.w3.org/1999/xlink" x="0px" y="0px"
	 viewBox="-29.1 71.5 612 649" enable-background="new -29.1 71.5 612 649" xml:space="preserve">
<g>
	<g>
		<circle fill="#FFFFFF" cx="480.8" cy="173.5" r="102.1"/>
	</g>
</g>
<g>
	<g>
		<circle fill="#FFFFFF" cx="480.8" cy="618.5" r="102.1"/>
	</g>
</g>
<g>
	<circle fill="#FFFFFF" cx="73" cy="396" r="102.1"/>
</g>
<g>
	<path fill="#FFFFFF" d="M480.8,646.3c-4.5,0-9-1.1-13.4-3.4L59.6,420.5c-9-4.8-14.5-14.2-14.5-24.5s5.6-19.5,14.5-24.5l407.9-222.5
		c13.5-7.4,30.4-2.4,37.7,11.1c7.4,13.5,2.4,30.4-11.1,37.7L131.1,396l363.1,198.2c13.5,7.4,18.5,24.3,11.1,37.7
		C500.3,641.2,490.7,646.3,480.8,646.3z"/>
</g>
</svg>
